<?xml version="1.0" encoding="utf-8"?>
<!-- Generator: Adobe Illustrator 26.5.1, SVG Export Plug-In . SVG Version: 6.00 Build 0)  -->
<svg version="1.1" id="Layer_1" xmlns="http://www.w3.org/2000/svg" xmlns:xlink="http://www.w3.org/1999/xlink" x="0px" y="0px"
	 viewBox="0 0 1024 768" style="enable-background:new 0 0 1024 768;" xml:space="preserve">
<style type="text/css">
	.st0{fill:#FFFFFF;}
	.st1{fill:#730099;}
</style>
<circle class="st0" cx="497.7" cy="369" r="192"/>
<path class="st1" d="M686.1,335.9c-10.7-57.5-41.2-101.5-90.9-132c-25.4-15.5-53.2-24-82.9-26.3c-1-0.1-1.9-0.4-2.9-0.6
	c-8,0-16,0-24,0c-6.9,1-13.8,1.7-20.7,2.9c-43.4,7.5-79.9,27.9-109.5,60.5c-28.1,31-44.1,67.6-48.5,109.3
	C298,431.1,343.8,510.4,418.4,544c20.5,9.2,41.8,14.8,64.1,16.5c1,0.1,1.9,0.4,2.9,0.6c5,0,10,0,15,0c0.2-1.4,0.4-2.7,0.4-4.1
	c0-47,0-94,0-141c0-1.3,0-2.6,0-4.4c-13.8,0-27.3,0-40.9,0c0-16.1,0-31.8,0-47.9c13.5,0,26.9,0,40.9,0c0-1.9,0-3.4,0-4.8
	c0.1-13-0.4-26.1,0.5-39c1.5-21.4,10.4-38.9,30.5-48.5c6.9-3.3,14.9-5.7,22.5-6.1c14.7-0.8,29.6,0.2,44.6,0.4c0,15.1,0,29.1,0,43.8
	c-1.3,0-2.6,0-3.9,0c-8.4,0-16.9-0.2-25.4,0.2c-12.4,0.6-18.8,7-19.1,19.4c-0.2,10.7-0.1,21.5-0.1,32.2c0,0.5,0.1,1,0.2,1.9
	c15.5,0,31.1,0,47.2,0c-2.1,16.3-4.1,32-6.2,48.2c-13.7,0-27.2,0-41,0c0,47.5,0,94.6,0,142.5c8.8-3.4,17.5-6.1,25.6-10
	c61.1-29.3,97.9-77.4,110.3-144.1c1.2-6.5,1.7-13.1,2.5-19.6c0-7.7,0-15.4,0-23.2C688.1,350,687.4,342.9,686.1,335.9z"/>
</svg>
