<?xml version="1.0" encoding="utf-8"?>
<!-- Generator: Adobe Illustrator 26.5.1, SVG Export Plug-In . SVG Version: 6.00 Build 0)  -->
<svg version="1.1" id="Layer_1" xmlns="http://www.w3.org/2000/svg" xmlns:xlink="http://www.w3.org/1999/xlink" x="0px" y="0px"
	 viewBox="0 0 494.3 480" style="enable-background:new 0 0 494.3 480;" xml:space="preserve">
<style type="text/css">
	.st0{fill:#FFFFFF;}
	.st1{fill:#730099;}
</style>
<g>
	<circle class="st0" cx="242.3" cy="237.1" r="218.3"/>
</g>
<path class="st1" d="M457.3,199c-12.2-65.5-46.9-115.6-103.5-150.3c-28.9-17.6-60.6-27.3-94.4-29.9c-1.1-0.1-2.2-0.5-3.3-0.7
	c-9.1,0-18.2,0-27.3,0c-7.9,1.1-15.7,1.9-23.6,3.3c-49.4,8.5-91,31.8-124.7,68.9c-32,35.3-50.2,77-55.2,124.4
	c-9.9,92.7,42.2,183,127.2,221.2c23.3,10.5,47.6,16.9,73,18.8c1.1,0.1,2.2,0.5,3.3,0.7c5.7,0,11.4,0,17.1,0c0.2-1.6,0.5-3.1,0.5-4.7
	c0-53.5,0-107,0-160.5c0-1.5,0-3,0-5c-15.7,0-31.1,0-46.6,0c0-18.3,0-36.2,0-54.5c15.4,0,30.6,0,46.6,0c0-2.2,0-3.9,0-5.5
	c0.1-14.8-0.5-29.7,0.6-44.4c1.7-24.4,11.8-44.3,34.7-55.2c7.9-3.8,17-6.5,25.6-6.9c16.7-0.9,33.7,0.2,50.8,0.5
	c0,17.2,0,33.1,0,49.9c-1.5,0-3,0-4.4,0c-9.6,0-19.2-0.2-28.9,0.2c-14.1,0.7-21.4,8-21.7,22.1c-0.2,12.2-0.1,24.5-0.1,36.7
	c0,0.6,0.1,1.1,0.2,2.2c17.6,0,35.4,0,53.7,0c-2.4,18.6-4.7,36.4-7.1,54.9c-15.6,0-31,0-46.7,0c0,54.1,0,107.7,0,162.3
	c10-3.9,19.9-6.9,29.1-11.4C401.8,402.7,443.7,348,457.8,272c1.4-7.4,1.9-14.9,2.8-22.3c0-8.8,0-17.5,0-26.4
	C459.6,215,458.8,206.9,457.3,199z"/>
</svg>
