<?xml version="1.0" encoding="utf-8"?>
<!-- Generator: Adobe Illustrator 26.5.1, SVG Export Plug-In . SVG Version: 6.00 Build 0)  -->
<svg version="1.1" id="Layer_1" xmlns="http://www.w3.org/2000/svg" xmlns:xlink="http://www.w3.org/1999/xlink" x="0px" y="0px"
	 viewBox="0 0 1024 768" style="enable-background:new 0 0 1024 768;" xml:space="preserve">
<style type="text/css">
	.st0{fill:#730099;}
	.st1{fill:#FFFFFF;}
</style>
<path class="st0" d="M485.4,177c8,0,16,0,24,0c1,0.2,1.9,0.5,2.9,0.6c29.7,2.3,57.5,10.8,82.9,26.3c49.7,30.5,80.2,74.5,90.9,132
	c1.3,7,2,14.1,2.9,21.1c0,7.8,0,15.5,0,23.2c-0.8,6.5-1.3,13.1-2.5,19.6c-12.4,66.7-49.2,114.8-110.3,144.1
	c-8.1,3.9-16.8,6.6-25.6,10c0-47.9,0-95,0-142.5c13.8,0,27.3,0,41,0c2.1-16.2,4.1-31.9,6.2-48.2c-16.1,0-31.7,0-47.2,0
	c-0.1-0.9-0.2-1.4-0.2-1.9c0-10.7-0.1-21.5,0.1-32.2c0.3-12.4,6.7-18.8,19.1-19.4c8.5-0.4,17-0.2,25.4-0.2c1.3,0,2.6,0,3.9,0
	c0-14.7,0-28.7,0-43.8c-15-0.2-29.9-1.2-44.6-0.4c-7.6,0.4-15.6,2.8-22.5,6.1c-20.1,9.6-29,27.1-30.5,48.5c-0.9,12.9-0.4,26-0.5,39
	c0,1.4,0,2.9,0,4.8c-14,0-27.4,0-40.9,0c0,16.1,0,31.8,0,47.9c13.6,0,27.1,0,40.9,0c0,1.8,0,3.1,0,4.4c0,47,0,94,0,141
	c0,1.4-0.2,2.7-0.4,4.1c-5,0-10,0-15,0c-1-0.2-1.9-0.5-2.9-0.6c-22.3-1.7-43.6-7.3-64.1-16.5C343.8,510.4,298,431.1,306.7,349.7
	c4.4-41.7,20.4-78.3,48.5-109.3c29.6-32.6,66.1-53,109.5-60.5C471.6,178.7,478.5,178,485.4,177z"/>
<path class="st1" d="M500.4,561c0.1-1.4,0.4-2.7,0.4-4.1c0-47,0-94,0-141c0-1.3,0-2.7,0-4.4c-13.9,0-27.3,0-40.9,0
	c0-16.1,0-31.8,0-47.9c13.5,0,26.9,0,40.9,0c0-1.9,0-3.3,0-4.8c0.1-13-0.4-26,0.5-39c1.5-21.4,10.4-38.9,30.5-48.5
	c6.9-3.3,14.9-5.7,22.5-6.1c14.7-0.8,29.6,0.2,44.6,0.4c0,15.1,0,29.1,0,43.8c-1.3,0-2.6,0-3.9,0c-8.5,0.1-17-0.1-25.4,0.2
	c-12.4,0.5-18.8,7-19.1,19.4c-0.3,10.7-0.1,21.5-0.1,32.2c0,0.5,0.1,1,0.2,1.9c15.5,0,31.1,0,47.2,0c-2.1,16.3-4.1,32.1-6.2,48.2
	c-13.7,0-27.3,0-41,0c0,47.5,0,94.5,0,142.5c8.8-3.4,17.5-6.1,25.6-10c61.1-29.3,97.9-77.3,110.3-144.1c1.2-6.5,1.7-13.1,2.5-19.6
	c0,60.2,0,120.5,0,180.8C626.1,561,563.2,561,500.4,561z"/>
<path class="st1" d="M485.4,177c-6.9,1-13.8,1.7-20.7,2.9c-43.4,7.5-80,27.9-109.5,60.5c-28.1,31-44.1,67.7-48.5,109.3
	c-8.6,81.4,37.1,160.7,111.8,194.2c20.5,9.2,41.8,14.8,64.1,16.5c1,0.1,1.9,0.4,2.9,0.6c-60.1,0-120.3,0-180.4,0c0-128,0-256,0-384
	C365.1,177,425.3,177,485.4,177z"/>
<path class="st1" d="M689,357c-1-7-1.6-14.1-2.9-21.1c-10.8-57.5-41.2-101.5-90.9-132c-25.4-15.6-53.2-24.1-82.9-26.3
	c-1-0.1-1.9-0.4-2.9-0.6c59.9,0,119.8,0,179.6,0C689,237,689,297,689,357z"/>
</svg>
