<?xml version="1.0" encoding="utf-8"?>
<!-- Generator: Adobe Illustrator 26.5.1, SVG Export Plug-In . SVG Version: 6.00 Build 0)  -->
<svg version="1.1" id="Layer_1" xmlns="http://www.w3.org/2000/svg" xmlns:xlink="http://www.w3.org/1999/xlink" x="0px" y="0px"
	 viewBox="0 0 538.5 551.5" style="enable-background:new 0 0 538.5 551.5;" xml:space="preserve">
<style type="text/css">
	.st0{fill:#730099;}
	.st1{fill:#FDFDFD;}
</style>
<path class="st0" d="M404.7,531.7c-90,0-179.9,0-269.9,0c-0.5-1.6-1.9-1-3-1.1C74.5,521.5,31.4,482.2,18.2,427
	c-1.2-5.1-1.1-10.4-3.4-15.2c0-90.6,0-181.3,0-271.9c1.6-0.5,1-1.9,1.1-3C24.8,79.7,64.6,36.2,120,23.1c4.9-1.2,10.1-0.9,14.7-3.3
	c90,0,179.9,0,269.9,0c0.2,0.8,0.8,0.9,1.5,1c57.1,6.3,103.4,47.1,116.8,102.8c1.4,5.7,1.4,11.7,3.7,17.2c0,90.3,0,180.6,0,270.9
	c-1.6,0.5-1,1.9-1.1,3c-10.2,57.7-43.1,95.4-99.3,112.4C419.2,529.2,411.8,530.2,404.7,531.7z M436.6,275.9c0-24.8,0-49.6,0-74.5
	c-0.1-51.8-39.6-91.5-91.3-91.5c-49.8-0.1-99.6,0-149.4,0c-5.9,0-11.7,0.4-17.4,1.5c-44.2,8.9-73.8,45-73.8,90.2
	c0,49.5,0,99,0,148.4c0,52.1,39.5,91.8,91.5,91.8c49.6,0.1,99.3,0.1,148.9,0c51.8-0.1,91.3-39.6,91.4-91.4
	C436.7,325.5,436.6,300.7,436.6,275.9z"/>
<path class="st1" d="M436.6,275.9c0,24.8,0,49.6,0,74.5c-0.1,51.7-39.7,91.3-91.4,91.4c-49.6,0.1-99.3,0.1-148.9,0
	c-52-0.1-91.5-39.7-91.5-91.8c0-49.5,0-99,0-148.4c0-45.2,29.6-81.2,73.8-90.2c5.7-1.2,11.5-1.5,17.4-1.5c49.8,0,99.6,0,149.4,0
	c51.7,0.1,91.2,39.7,91.3,91.5C436.7,226.2,436.6,251.1,436.6,275.9z M270.7,139.8c-25,0-50,0-75,0c-34.6,0.1-60.9,26.5-61,61.1
	c0,49.8,0,99.6,0,149.4c0,34.9,26.3,61.3,61.2,61.4c49.8,0.1,99.6,0.1,149.4,0c34.9,0,61.2-26.4,61.2-61.4c0-49.6,0-99.3,0-148.9
	c0-35.3-26.2-61.5-61.5-61.6C320.3,139.8,295.5,139.8,270.7,139.8z"/>
<path class="st0" d="M270.7,139.8c24.8,0,49.6,0,74.5,0c35.3,0,61.5,26.3,61.5,61.6c0,49.6,0,99.3,0,148.9c0,35-26.3,61.3-61.2,61.4
	c-49.8,0.1-99.6,0.1-149.4,0c-34.9,0-61.2-26.4-61.2-61.4c0-49.8,0-99.6,0-149.4c0-34.6,26.4-61,61-61.1
	C220.7,139.8,245.7,139.8,270.7,139.8z M345.7,275.8c0-41.3-33.7-74.9-75-74.9s-74.9,33.7-74.9,75s33.7,75,75,74.9
	C312,350.7,345.7,317.1,345.7,275.8z M371.7,189.7c-0.1-8.1-6.9-14.9-15-14.8c-8.1,0-14.9,6.8-15,14.9c-0.1,8.3,6.9,15.2,15.2,15.1
	C365,204.7,371.7,197.8,371.7,189.7z"/>
<path class="st1" d="M345.7,275.8c0,41.3-33.6,75-74.9,75c-41.3,0-75-33.7-75-74.9c0-41.3,33.6-75,74.9-75
	C312,200.8,345.7,234.5,345.7,275.8z M225.7,275.6c0,24.9,20.2,45.2,45,45.2c24.6,0,44.8-20,45-44.6c0.2-24.9-19.9-45.3-44.7-45.4
	C246.1,230.7,225.8,250.8,225.7,275.6z"/>
<path class="st1" d="M371.7,189.7c0.1,8.1-6.6,15-14.7,15.1c-8.3,0.1-15.3-6.8-15.2-15.1c0.1-8.1,6.9-14.9,15-14.9
	C364.8,174.8,371.6,181.6,371.7,189.7z"/>
<path class="st0" d="M225.7,275.6c0.1-24.8,20.4-44.9,45.2-44.8c24.8,0.1,44.9,20.5,44.7,45.4c-0.2,24.6-20.4,44.6-45,44.6
	C245.9,320.8,225.7,300.5,225.7,275.6z"/>
</svg>
