<?xml version="1.0" encoding="utf-8"?>
<!-- Generator: Adobe Illustrator 26.5.1, SVG Export Plug-In . SVG Version: 6.00 Build 0)  -->
<svg version="1.1" id="Layer_1" xmlns="http://www.w3.org/2000/svg" xmlns:xlink="http://www.w3.org/1999/xlink" x="0px" y="0px"
	 viewBox="0 0 572.2 563.7" style="enable-background:new 0 0 572.2 563.7;" xml:space="preserve">
<style type="text/css">
	.st0{fill:#FFFFFF;}
	.st1{fill:none;}
	.st2{fill:#730099;}
</style>
<g>
	<path class="st0" d="M508,523.8H59c-6.6,0-12-5.4-12-12v-449c0-6.6,5.4-12,12-12h449c6.6,0,12,5.4,12,12v449
		C520,518.4,514.6,523.8,508,523.8z"/>
	<path class="st1" d="M166.2,117.3c-25.4-0.4-46.2,19.5-46.6,44.3c-0.3,25,20,45.5,45.1,45.7c25.5,0.3,45.7-19.4,46-44.7
		C211,138.2,190.9,117.8,166.2,117.3z"/>
	<path class="st1" d="M446.6,281.8c-6.1-24.1-18.6-43.6-43.4-52.8c-10.3-3.9-21.2-5.4-32.2-5.4c-26.8-0.7-50.8,5.4-67.9,28.6
		c0-4.6,0.1-9.2,0-13.8c-0.1-8-3.9-11.7-11.9-11.7c-15.6-0.1-31.3-0.1-47,0c-8.1,0-11.9,3.7-11.9,11.7c0,66,0,131.8,0,197.7
		c0,8.1,3.9,11.9,12.3,11.9c14.4,0,28.9,0,43.3,0c11.9,0,14.9-2.9,14.9-14.5c0-33.3,0-66.4,0-99.6c0-12.3,2.8-23.9,9.5-34.4
		c8.5-13.2,21.1-17.7,36.4-15.7c14,1.8,22.3,10.1,26.7,22.9c3.6,10.8,3.9,21.9,3.9,33.1c0,31.9-0.1,63.6,0,95.5
		c0,9.2,3.6,12.6,13.1,12.7c15.5,0,31,0,46.5,0c8.9,0,12.8-3.7,12.8-12.4c0-36.4,0-73-0.1-109.4
		C451.5,311.3,450.3,296.3,446.6,281.8z"/>
	<path class="st1" d="M186.8,226.5c-14.4-0.1-28.9,0-43.3,0c-9.9,0-13.8,4-13.8,13.9c0.2,32.1,0.2,64.2,0.2,96.4
		c0,32.7,0,65.4,0,98.1c0,8.8,4.2,13,13.1,13c14.7,0,29.2,0,43.8,0c9.2,0,13.5-4,13.5-13.1c0-65,0-130.1,0-195.1
		C200.3,230.6,196.1,226.6,186.8,226.5z"/>
	<path class="st2" d="M551.4,71.4C543,40,514.2,17.6,481.3,17.6c-129.9-0.1-260-0.1-390,0c-40.1,0.1-72.5,32.1-72.5,71.6
		c-0.1,128.3-0.1,256.6,0,384.9c0.1,33.9,23.3,62.3,57.1,70.2c1.5,0.4,3.6-0.1,4.6,1.8c136.5,0,272.9,0,409.4,0
		c2.8-1.6,6.1-1.2,9.2-2.2c27.6-8.3,45.3-26,52.6-53.7c0.4-1.7-0.2-3.9,1.8-5c0-135.4,0-270.6,0-405.8C551.7,77,552,74,551.4,71.4z
		 M200.8,433.9c0,9.1-4.3,13.1-13.5,13.1c-14.6,0-29.1,0-43.8,0c-8.9,0-13.1-4.2-13.1-13c0-32.7,0-65.4,0-98.1
		c0-32.2,0-64.3-0.2-96.4c0-9.9,3.9-13.9,13.8-13.9c14.4,0,28.9-0.1,43.3,0c9.3,0.1,13.5,4.1,13.5,13.2
		C200.8,303.8,200.8,368.9,200.8,433.9z M439.4,447.1c-15.5,0-31,0-46.5,0c-9.5-0.1-13.1-3.5-13.1-12.7c-0.1-31.9,0-63.6,0-95.5
		c0-11.2-0.3-22.3-3.9-33.1c-4.4-12.8-12.7-21.1-26.7-22.9c-15.3-2-27.9,2.5-36.4,15.7c-6.7,10.5-9.5,22.1-9.5,34.4
		c0,33.2,0,66.3,0,99.6c0,11.6-3,14.5-14.9,14.5c-14.4,0-28.9,0-43.3,0c-8.4,0-12.3-3.8-12.3-11.9c0-65.9,0-131.7,0-197.7
		c0-8,3.8-11.7,11.9-11.7c15.7-0.1,31.4-0.1,47,0c8,0,11.8,3.7,11.9,11.7c0.1,4.6,0,9.2,0,13.8c17.1-23.2,41.1-29.3,67.9-28.6
		c11,0,21.9,1.5,32.2,5.4c24.8,9.2,37.3,28.7,43.4,52.8c3.7,14.5,4.9,29.5,5,44.4c0.1,36.4,0.1,73,0.1,109.4
		C452.2,443.4,448.3,447.1,439.4,447.1z M165.2,206.4c-25.1-0.2-45.4-20.7-45.1-45.7c0.4-24.8,21.2-44.7,46.6-44.3
		c24.7,0.5,44.8,20.9,44.5,45.3C210.9,187,190.7,206.7,165.2,206.4z"/>
</g>
</svg>
