<?xml version="1.0" encoding="utf-8"?>
<!-- Generator: Adobe Illustrator 26.5.1, SVG Export Plug-In . SVG Version: 6.00 Build 0)  -->
<svg version="1.1" id="Layer_1" xmlns="http://www.w3.org/2000/svg" xmlns:xlink="http://www.w3.org/1999/xlink" x="0px" y="0px"
	 viewBox="0 0 1024 768" style="enable-background:new 0 0 1024 768;" xml:space="preserve">
<style type="text/css">
	.st0{fill:#FFFFFF;}
	.st1{fill:#730099;}
	.st2{fill:#FCFCFC;}
	.st3{fill:#FDFDFD;}
</style>
<path class="st0" d="M777,368.7c-1.3-9.2-2.2-18.4-3.9-27.6c-10.2-57.4-37.3-105.5-80.6-144.3c-36.2-32.4-78.4-52.9-126.4-60.3
	c-72.5-11.1-138.4,5.6-195.9,51.3c-53.9,42.8-85.3,98.9-93.5,167.4C261.3,484,347.9,603.9,475,630.3c10.2,2.1,20.7,2.9,31,4.4
	c1.4,0.2,2.8,0.6,4.3,0.9c-78.7,0-157.5,0-236.3,0c0-167.6,0-335.3,0-503c167.6,0,335.3,0,503,0C777,211.2,777,290,777,368.7z"/>
<path class="st0" d="M541.7,635.5c9.2-1.3,18.4-2.1,27.5-3.8c75.3-14.2,132.9-54.3,172.7-119.6c20.2-33.1,31.3-69.4,34.3-108.1
	c0.1-1.3,0.5-2.5,0.8-3.8c0,78.5,0,156.9,0,235.4C698.6,635.5,620.1,635.5,541.7,635.5z"/>
<path class="st0" d="M635.9,306.5c9.7-2.6,19.4-5.3,29.4-8c-0.6,1.1-1,2.3-1.8,3.1c-7.3,7.6-14.6,15.4-22.2,22.7
	c-2.3,2.2-3.4,4.1-3.4,7.4c-0.8,61.1-25.7,109.6-77.2,143.1c-32.4,21.1-68.8,27.1-107,22.8c-22.4-2.5-43.2-9.8-62.6-21
	c-1.1-0.7-2.2-1.3-3.3-2c-0.2-0.1-0.3-0.5-0.7-1.2c30.5,2.4,57.9-5,83.4-24c-12.9-1.2-23.9-4.7-33.4-11.9
	c-9.4-7.2-16.2-16.4-20.1-28.3c8.1,0,15.8,0,23.5,0c0.1-0.4,0.2-0.8,0.4-1.2c-27.6-8.9-42.4-27.4-44.4-56.2
	c8.5,2.4,16.4,4.6,24.3,6.8c0.3-0.4,0.5-0.9,0.8-1.3c-11.7-9-19.8-20.2-22.9-34.7c-3.1-14.5-1.2-28.2,6.3-41.6
	c31.2,36.6,70.4,56.8,118.1,60.2c0-6.7-0.7-13.2,0.1-19.6c2.9-23.1,15.4-39.4,37.1-47.6c21.8-8.2,41.8-3.7,59.2,11.6
	c2.4,2.1,4.4,3,7.3,1.9c10.5-3.8,21.1-7.5,31.7-11.3c-3.9,12-12,21.6-22.8,29.1C635.6,305.6,635.7,306,635.9,306.5z"/>
<path class="st1" d="M718.1,227.7c0,98,0,196,0,294.1c-1.4,0.8-1,2.4-1.3,3.6c-5.2,20.1-17.9,32.9-37.7,38.9
	c-2.2,0.7-4.6,0.4-6.6,1.6c-97.8,0-195.5,0-293.3,0c-0.7-1.4-2.2-1-3.3-1.3c-24.2-5.7-40.8-26.3-40.9-50.9c-0.1-93-0.1-186,0-279
	c0-28.6,23.2-51.8,51.9-51.9c93.1-0.1,186.3-0.1,279.4,0c23.6,0,44.2,16.2,50.2,39C717,223.8,716.8,226,718.1,227.7z M539.1,352.3
	c0-3.3,0.1-6.7,0-10c-0.1-5.8-2.8-8.5-8.5-8.5c-11.2-0.1-22.4-0.1-33.7,0c-5.8,0-8.5,2.7-8.5,8.5c0,47.8,0,95.5,0,143.3
	c0,5.9,2.8,8.6,8.8,8.6c10.3,0,20.7,0,31,0c8.5,0,10.7-2.1,10.7-10.5c0-24.1,0-48.1,0-72.2c0-8.9,2-17.3,6.8-24.9
	c6.1-9.6,15.1-12.8,26.1-11.4c10,1.3,16,7.3,19.1,16.6c2.6,7.8,2.8,15.9,2.8,24c0,23.1-0.1,46.1,0,69.2c0,6.7,2.6,9.1,9.4,9.2
	c11.1,0,22.2,0,33.3,0c6.4,0,9.2-2.7,9.2-9c0-26.4,0-52.9-0.1-79.3c-0.1-10.8-0.9-21.7-3.6-32.2c-4.4-17.5-13.3-31.6-31.1-38.3
	c-7.4-2.8-15.2-3.9-23.1-3.9C568.5,331.1,551.3,335.5,539.1,352.3z M415,413.6c0,23.7,0,47.4,0,71.1c0,6.4,3,9.4,9.4,9.4
	c10.5,0,20.9,0,31.4,0c6.6,0,9.7-2.9,9.7-9.5c0-47.1,0-94.3,0-141.4c0-6.6-3-9.5-9.7-9.6c-10.3-0.1-20.7,0-31,0
	c-7.1,0-9.9,2.9-9.9,10.1C415,367,415,390.3,415,413.6z M472.9,287.4c0.2-17.7-14.2-32.5-31.9-32.8c-18.2-0.3-33.1,14.1-33.4,32.1
	c-0.2,18.1,14.3,33,32.3,33.1C458.2,320,472.7,305.7,472.9,287.4z"/>
<path class="st2" d="M718.1,227.7c-1.3-1.7-1.1-3.9-1.6-5.9c-6-22.8-26.6-39-50.2-39c-93.1-0.1-186.3-0.1-279.4,0
	c-28.6,0-51.8,23.2-51.9,51.9c-0.1,93-0.1,186,0,279c0,24.7,16.7,45.2,40.9,50.9c1.1,0.3,2.6-0.2,3.3,1.3c-14,0-27.9-0.1-41.9,0.1
	c-2.5,0-3.1-0.4-3.1-3c0.1-97.6,0.1-195.2,0.1-292.8c0-28.4,0-56.8-0.1-85.3c0-2.3,0.5-2.9,2.9-2.9c126.2,0.1,252.3,0.1,378.5,0
	c2.3,0,2.7,0.5,2.7,2.7C718.1,199,718.1,213.4,718.1,227.7z"/>
<path class="st2" d="M672.5,565.9c2-1.3,4.4-1,6.6-1.6c19.8-6,32.5-18.8,37.7-38.9c0.3-1.2,0-2.8,1.3-3.6c0,14,0,27.9,0,41.9
	c0,1.9-0.4,2.3-2.3,2.3C701.4,565.9,686.9,565.9,672.5,565.9z"/>
<path class="st3" d="M539.1,352.3c12.2-16.8,29.4-21.2,48.6-21.1c7.9,0.1,15.6,1.1,23.1,3.9c17.8,6.7,26.6,20.8,31.1,38.3
	c2.7,10.6,3.5,21.4,3.6,32.2c0.2,26.4,0.1,52.9,0.1,79.3c0,6.3-2.7,9-9.2,9c-11.1,0-22.2,0-33.3,0c-6.8,0-9.4-2.5-9.4-9.2
	c0-23.1,0-46.1,0-69.2c0-8.1-0.2-16.2-2.8-24c-3.1-9.3-9.2-15.3-19.1-16.6c-10.9-1.4-20,1.7-26.1,11.4c-4.8,7.6-6.7,16-6.8,24.9
	c-0.1,24.1,0,48.1,0,72.2c0,8.4-2.2,10.5-10.7,10.5c-10.3,0-20.7,0-31,0c-5.9,0-8.8-2.8-8.8-8.6c0-47.8,0-95.5,0-143.3
	c0-5.8,2.7-8.4,8.5-8.5c11.2-0.1,22.4-0.1,33.7,0c5.7,0,8.4,2.8,8.5,8.5C539.1,345.6,539.1,349,539.1,352.3z"/>
<path class="st2" d="M415,413.6c0-23.3,0-46.6,0-69.9c0-7.2,2.8-10,9.9-10.1c10.3,0,20.7-0.1,31,0c6.7,0,9.7,2.9,9.7,9.6
	c0,47.1,0,94.3,0,141.4c0,6.6-3.1,9.5-9.7,9.5c-10.5,0-20.9,0-31.4,0c-6.4,0-9.4-3-9.4-9.4C415,461,415,437.3,415,413.6z"/>
<path class="st2" d="M472.9,287.4c-0.2,18.3-14.7,32.5-32.9,32.4c-18-0.1-32.6-15-32.3-33.1c0.2-18,15.2-32.4,33.4-32.1
	C458.7,254.9,473.1,269.7,472.9,287.4z"/>
</svg>
