<?xml version="1.0" encoding="utf-8"?>
<!-- Generator: Adobe Illustrator 26.5.1, SVG Export Plug-In . SVG Version: 6.00 Build 0)  -->
<svg version="1.1" id="Layer_1" xmlns="http://www.w3.org/2000/svg" xmlns:xlink="http://www.w3.org/1999/xlink" x="0px" y="0px"
	 viewBox="0 0 1024 768" style="enable-background:new 0 0 1024 768;" xml:space="preserve">
<style type="text/css">
	.st0{fill:#E3D200;}
	.st1{fill:#FFFEF9;}
</style>
<g>
	<g>
		<path class="st0" d="M160.24,434.31h-40.76v-2.73h12.45v-105.4h-12.45v-2.73h38.72c16.26,0,27.89,1.71,34.88,5.12
			c6.99,3.41,10.49,9.35,10.49,17.82c0,8.47-2.67,14.87-8.02,19.19c-5.35,4.32-12.39,6.88-21.15,7.67v1.02
			c9.89,0.23,17.91,2.56,24.05,6.99c6.14,4.43,9.21,11.03,9.21,19.78C207.65,423.23,191.85,434.31,160.24,434.31z M176.87,367.03
			c5.06-3.92,7.59-10.17,7.59-18.76c0-8.58-2.25-14.41-6.74-17.48c-4.49-3.07-11.4-4.61-20.72-4.61h-7.33v46.73h4.78
			C164.33,372.91,171.81,370.95,176.87,367.03z M181.05,424.59c5-4.66,7.5-12.05,7.5-22.17c0-10.12-2.84-17.11-8.53-20.98
			c-5.69-3.86-14.5-5.8-26.44-5.8h-3.92v55.94h8.02C168.25,431.58,176.04,429.26,181.05,424.59z"/>
		<path class="st0" d="M261.03,352.45c13.53,0,22.48,3.04,26.86,9.12c4.38,6.08,6.57,16.69,6.57,31.81v30.19
			c0,4.66,1.02,6.99,3.07,6.99c4.21,0,6.99-6.54,8.36-19.61l3.07,0.34c-1.71,17.63-7.45,26.44-17.23,26.44
			c-2.84,0-5.03-1.02-6.57-3.07c-1.53-2.05-2.5-4.29-2.9-6.74c-0.4-2.44-0.6-5.48-0.6-9.12h-1.02c-1.48,6.03-4.49,10.69-9.04,13.98
			c-4.55,3.3-10.38,4.95-17.48,4.95c-7.11,0-13.33-1.91-18.68-5.71c-5.35-3.81-8.02-9.29-8.02-16.46c0-5.34,1.54-9.78,4.6-13.3
			c6.37-7.28,20.81-10.92,43.32-10.92c1.25,0,2.56,0,3.92,0v-8.36c0-8.98-1.54-15.75-4.6-20.3c-3.07-4.55-8.39-6.82-15.95-6.82
			c-7.56,0-13.11,1.54-16.63,4.6c-3.53,3.07-5.29,6.25-5.29,9.55c0,1.02,0.48,1.54,1.45,1.54c0.96,0,1.51-0.51,1.62-1.54
			c0.68-2.96,2.96-4.43,6.82-4.43c2.5,0,4.49,0.88,5.97,2.64c1.48,1.76,2.22,3.92,2.22,6.48c0,2.56-0.94,4.72-2.81,6.48
			c-1.88,1.76-4.32,2.64-7.33,2.64c-3.01,0-5.63-1.16-7.85-3.5c-2.22-2.33-3.33-5.2-3.33-8.61c0-6.37,2.67-11.17,8.02-14.41
			C246.93,354.07,253.42,352.45,261.03,352.45z M279.28,405.83V394.4c-1.14,0-2.93,0-5.37,0c-2.45,0-5.35,0.17-8.7,0.51
			c-3.36,0.34-6.8,1.19-10.32,2.56c-7.28,2.62-10.92,8.42-10.92,17.4c0,5.46,1.31,9.84,3.92,13.13c2.61,3.3,6.82,4.95,12.62,4.95
			c5.8,0,10.37-2.61,13.73-7.85C277.6,419.88,279.28,413.45,279.28,405.83z"/>
		<path class="st0" d="M358.76,355.86c-15.46,0-23.19,12.85-23.19,38.55c0,25.7,7.85,38.55,23.54,38.55
			c5.91,0,10.77-2.16,14.58-6.48c3.81-4.32,6.45-9.89,7.93-16.72l3.07,0.34c-1.71,8.3-5.12,14.98-10.23,20.04
			c-5.12,5.06-11.6,7.59-19.44,7.59c-11.71,0-20.64-3.95-26.78-11.85c-6.14-7.9-9.21-18.28-9.21-31.13c0-12.85,3.1-23.11,9.29-30.78
			c6.2-7.67,15.44-11.51,27.71-11.51c7.85,0,14.21,1.71,19.1,5.12c4.89,3.41,7.33,8.59,7.33,15.52c0,3.41-1.11,6.28-3.33,8.61
			c-2.22,2.33-4.83,3.5-7.85,3.5c-3.01,0-5.46-0.88-7.33-2.64c-1.88-1.76-2.81-3.92-2.81-6.48c0-2.56,0.74-4.72,2.22-6.48
			c1.48-1.76,3.47-2.64,5.97-2.64c3.86,0,6.14,1.48,6.82,4.43c0.11,1.02,0.65,1.53,1.62,1.53c0.96,0,1.45-0.51,1.45-1.53
			c0-3.86-1.74-7.42-5.2-10.66C370.55,357.48,365.47,355.86,358.76,355.86z"/>
		<path class="st0" d="M431.59,389.63l-10.92,1.88v40.25h11.26v2.56h-37.69v-2.56h11.26V319.19h-12.11v-2.56h3.58
			c8.87,0,16.77-0.74,23.71-2.22v74.19c22.51-2.96,33.77-10.23,33.77-21.83c0-3.41-0.88-6.14-2.64-8.19
			c-1.76-2.05-3.95-3.07-6.57-3.07c-1.14,0-1.71,0.46-1.71,1.36c0,0.91,0.51,1.48,1.54,1.71c2.95,0.68,4.43,2.9,4.43,6.65
			c0,2.39-0.88,4.35-2.64,5.88c-1.76,1.54-3.92,2.3-6.48,2.3c-2.56,0-4.72-0.94-6.48-2.81c-1.76-1.88-2.64-4.29-2.64-7.25
			c0-2.96,1.16-5.51,3.5-7.68c2.33-2.16,5.43-3.24,9.3-3.24c3.86,0,7.05,1.28,9.55,3.84c2.5,2.56,3.75,6.05,3.75,10.49
			c0,9.44-5.91,16.26-17.74,20.47v0.34c8.87,0.46,14.67,2.79,17.4,6.99c2.73,4.21,4.09,11.09,4.09,20.64v6.48
			c0,4.32,0.37,7.42,1.11,9.29c0.74,1.88,2.13,2.81,4.18,2.81c0.79,0,1.82-0.17,3.07-0.51l0.34,2.05c-2.96,0.79-6.03,1.19-9.21,1.19
			c-9.78,0-14.67-5.63-14.67-16.89v-9.21c0-13.87-4.43-20.81-13.3-20.81H431.59z"/>
		<path class="st0" d="M517.37,474.05c-5.69,0-10.23-2.02-13.64-6.06c-3.41-4.04-5.12-9.24-5.12-15.61c0-9.66,5-18.13,15.01-25.41
			l-0.17-0.68c-7.73-0.45-14.5-5.74-20.3-15.86c-5.8-10.12-8.7-24.27-8.7-42.47v-9.55h-12.11v-2.56h3.58c8.98,0,17-0.74,24.05-2.22
			v10.4c0,16.03,1.9,28.97,5.71,38.8c3.81,9.84,9.29,14.75,16.46,14.75c5.12,0,10.46-3.86,16.03-11.6
			c5.57-7.73,8.36-16.49,8.36-26.27c0-5.57-0.8-10.49-2.39-14.75c-1.59-4.26-4.09-7.08-7.51-8.44c-1.14-0.57-2.45-0.85-3.92-0.85
			c-1.48,0-2.22,0.49-2.22,1.45c0,0.97,0.51,1.51,1.54,1.62c3.07,0.57,4.55,2.5,4.43,5.8c0,6.37-2.96,9.55-8.87,9.55
			c-2.73,0-4.98-0.96-6.74-2.9c-1.76-1.93-2.64-4.46-2.64-7.59c0-3.13,1.25-5.77,3.75-7.93c2.5-2.16,5.51-3.24,9.04-3.24
			c6.37,0,11.06,2.5,14.07,7.5c3.01,5,4.52,11.37,4.52,19.1c0,18.31-7.5,32.46-22.51,42.47c-0.23,0.23-1.42,1.02-3.58,2.39
			c-2.16,1.36-3.5,2.25-4.01,2.64c-0.51,0.4-1.73,1.28-3.67,2.64c-1.93,1.36-3.21,2.39-3.84,3.07c-0.63,0.68-1.68,1.73-3.16,3.15
			c-1.48,1.42-2.5,2.64-3.07,3.67c-0.57,1.02-1.25,2.27-2.05,3.75c-1.36,2.5-2.05,6.05-2.05,10.66c0,4.6,1.42,8.64,4.26,12.11
			c2.84,3.47,6.03,5.2,9.55,5.2c1.13,0,1.71-0.45,1.71-1.36c0-0.91-0.51-1.48-1.53-1.7c-2.96-0.68-4.43-2.96-4.43-6.82
			c0-2.39,0.88-4.35,2.64-5.88c1.76-1.53,3.92-2.3,6.48-2.3s4.72,0.94,6.48,2.81c1.76,1.87,2.64,4.29,2.64,7.25
			c0,2.95-1.19,5.57-3.58,7.85C523.51,472.91,520.67,474.05,517.37,474.05z"/>
		<path class="st0" d="M598.04,431.75v2.56h-37.69v-2.56h11.26v-73.34H559.5v-2.56h3.58c8.98,0,17-0.74,24.05-2.22v17.06h1.02
			c1.93-5.46,5.2-9.86,9.81-13.22c4.61-3.35,9.75-5.03,15.44-5.03c9.89,0,16.65,2.93,20.3,8.78c3.64,5.86,5.46,14.58,5.46,26.18
			v44.34h11.26v2.56h-37.69v-2.56h11.26V389.8c0-12.85-0.97-21.32-2.9-25.41c-0.91-1.82-2.3-3.47-4.18-4.95
			c-1.88-1.48-4.63-2.22-8.27-2.22c-3.64,0-7.08,1.31-10.32,3.92c-3.24,2.62-5.66,6.2-7.25,10.75c-2.84,8.07-4.26,17.74-4.26,28.99
			v30.87H598.04z"/>
		<path class="st0" d="M744.55,434.31h-26.44v-15.52h-1.02c-2.05,5.8-5.09,10.4-9.12,13.81c-4.04,3.41-8.84,5.12-14.41,5.12
			c-10.23,0-17.82-4.01-22.77-12.02c-4.95-8.02-7.42-18.16-7.42-30.44c0-12.28,2.56-22.48,7.67-30.61
			c5.12-8.13,12.96-12.19,23.54-12.19c10.57,0,18.08,4.66,22.51,13.99h1.02v-47.24H706v-2.56h3.58c8.87,0,16.77-0.74,23.71-2.22
			v117.34h11.26V434.31z M718.45,395.26v-6.14c0-8.87-1.71-16.4-5.12-22.6c-3.41-6.2-8.76-9.29-16.03-9.29
			c-7.85,0-12.79,4.43-14.84,13.3c-1.71,7.16-2.56,14.33-2.56,21.49s0.2,12.62,0.6,16.37c0.4,3.75,1.13,7.65,2.22,11.68
			c1.08,4.04,2.9,7.19,5.46,9.46c2.56,2.28,5.63,3.41,9.21,3.41c3.58,0,6.76-1.28,9.55-3.84c2.78-2.56,4.97-5.82,6.57-9.81
			C716.8,411.23,718.45,403.22,718.45,395.26z"/>
		<path class="st0" d="M797.25,352.45c8.53,0,15.66,1.82,21.41,5.46c5.74,3.64,8.61,9.1,8.61,16.37c0,11.26-6.43,18.19-19.27,20.81
			c-6.48,1.25-14.56,1.88-24.22,1.88h-8.02v4.95c0,9.21,1.9,16.69,5.71,22.43c3.81,5.74,9.38,8.61,16.71,8.61
			c7.33,0,13.07-2.16,17.23-6.48c4.15-4.32,7.08-9.89,8.78-16.72l3.07,0.34c-1.82,8.3-5.49,14.98-11,20.04
			c-5.52,5.06-12.48,7.59-20.89,7.59c-11.83,0-20.81-3.89-26.95-11.68c-6.14-7.79-9.21-18.11-9.21-30.96
			c0-12.85,3.3-23.17,9.89-30.96C775.7,356.34,785.08,352.45,797.25,352.45z M775.76,393.89h5.97c9.21,0,15.66-0.91,19.36-2.73
			c3.69-1.82,6.23-4.06,7.59-6.74c1.36-2.67,2.05-6.45,2.05-11.34c0-4.89-1.22-9.07-3.67-12.54c-2.45-3.47-6.17-5.2-11.17-5.2
			c-5,0-9.07,1.79-12.2,5.37c-3.13,3.58-5.23,7.76-6.31,12.54c-1.08,4.78-1.62,10.06-1.62,15.86V393.89z"/>
		<path class="st0" d="M901.28,365.41c0-2.96-1.08-5.4-3.24-7.33c-2.16-1.93-5.06-2.9-8.7-2.9c-3.64,0-7.02,1.45-10.15,4.35
			c-3.13,2.9-5.54,6.68-7.25,11.34c-3.07,8.98-4.6,18.7-4.6,29.16v31.72h12.45v2.56h-38.89v-2.56h11.26v-73.34h-12.11v-2.56h3.58
			c9.1,0,17.11-0.74,24.05-2.22v17.74h1.02c4.78-12.62,11.94-18.93,21.49-18.93c4.21,0,7.65,1.34,10.32,4.01
			c2.67,2.67,4.01,5.97,4.01,9.89c0,3.92-1.11,7.05-3.33,9.38c-2.22,2.33-4.83,3.5-7.85,3.5c-3.01,0-5.46-0.88-7.33-2.64
			c-1.88-1.76-2.81-3.92-2.81-6.48c0-2.56,0.74-4.72,2.22-6.48c1.48-1.76,3.47-2.64,5.97-2.64c3.86,0,6.14,1.48,6.82,4.43
			c0.23,1.02,0.79,1.54,1.71,1.54C900.83,366.95,901.28,366.43,901.28,365.41z"/>
	</g>
	<g id="layer1_00000160155474782408049530000010494159925133622194_" transform="translate(0,496.74998)">
		
			<g id="g862_00000005256378804712223040000008291994928408534930_" transform="matrix(2.4688652,0,0,2.4688652,163.67766,-619.9529)">
			<path id="path858_00000088127227210515439870000016866666469190401168_" class="st1" d="M32.06,169.87
				c-1.86,0.46-2.91,0.99-4.28,2.08c-0.81,0.65-1.21,1.05-1.62,1.61c-0.64,0.89-1.28,2.36-1.18,2.73c0.03,0.11,0.22,0.22,0.76,0.43
				c0.9,0.35,2.28,1.07,2.69,1.42c0.17,0.14,0.29,0.27,0.28,0.29c-0.03,0.04-1.26-0.35-1.75-0.55c-1.75-0.74-3.48-1.25-4.67-1.38
				c-0.51-0.06-1.61,0.03-2.17,0.18c-1.73,0.44-3.46,1.86-4.44,3.66c-1.28,2.33-0.67,4.41,1.63,5.55c1.34,0.67,3.41,1.05,5.14,0.95
				c0.32-0.02,0.4-0.04,0.43-0.12c0.02-0.05,0.07-0.08,0.11-0.06c0.04,0.02-0.09,1.05,0.34,2.75l0.43,1.46l0.37,0.55
				c0.42,0.62,1.28,0.75,1.87,0.28c0,0,0.01-0.01,0.01-0.01c1.22-0.99,2.61-1.8,4.25-2.51c3.83-1.64,10.45-3.19,13.99-3.28
				c1.37-0.03,3.25,0.13,4.1,0.35c0.15,0.04,0.51,0.12,0.8,0.19l0.52,0.11l-0.78-3.09c-0.43-1.7-0.76-3.12-0.74-3.16
				s0.08-0.03,0.12,0.01c0.1,0.08,0.58-0.03,1.03-0.25c0.95-0.45,2.35-1.41,2.86-1.95c0.09-0.09,0.18-0.17,0.2-0.18
				c0.1-0.03,0.74-0.78,1.05-1.25c0.39-0.58,0.68-1.28,0.77-1.85c0.06-0.34,0.03-0.53-0.13-1.2c-0.19-0.78-0.21-0.81-0.6-1.29
				c-0.53-0.66-1.04-1.07-1.94-1.54c-1.17-0.62-2.42-0.94-3.6-0.94c-0.84,0-2.08,0.31-2.83,0.71c-1.15,0.6-2.2,1.58-3.94,3.63
				c-0.67,0.8-1.32,1.47-1.38,1.44c-0.09-0.05,0.39-1.01,0.82-1.63c0.23-0.34,0.59-0.81,0.79-1.04c0.25-0.28,0.35-0.46,0.33-0.56
				c-0.04-0.16-0.59-0.79-0.95-1.07c-1.47-1.17-2.64-1.61-4.93-1.85c-1.08-0.11-1.68-0.07-2.91,0.19
				C32.61,169.74,32.33,169.8,32.06,169.87L32.06,169.87z"/>
			<path id="path860_00000127739920013472078470000015436549941379871901_" class="st1" d="M36.57,187.5
				c-0.34,0.08-0.67,0.18-1.07,0.31c-4.07,1.33-4.26,1.4-5.7,2.02c-1.33,0.58-2.66,1.22-3.59,1.92l-1.29,1.12l-0.73,0.65
				c-1.7,2.34-6.46,12.65,5.21,14.16c0.57,0.07,0.81-0.71,0.29-0.96c-9.61-4.66-2.89-11.08-2.22-11.74
				c1.61-1.56,2.65-2.11,5.44-3.22c1.96-0.66,6.74-1.86,8.82-2.23c3.53-0.62,5.57-0.62,7.87,0c0.68,0.18,1.16,0.29,1.23,0.27
				c0.02,0-0.04-0.1-0.14-0.22c-0.12-0.15-0.29-0.61-0.61-1.62l-0.44-1.41l-0.36-0.07c-1.16-0.21-4.11-0.26-6.03-0.11
				c-1.04,0.09-1.58,0.16-3.08,0.43c-0.79,0.14-1.93,0.35-2.53,0.46C37.25,187.34,36.91,187.41,36.57,187.5L36.57,187.5z"/>
		</g>
	</g>
</g>
</svg>
