<?xml version="1.0" encoding="utf-8"?>
<!-- Generator: Adobe Illustrator 26.5.1, SVG Export Plug-In . SVG Version: 6.00 Build 0)  -->
<svg version="1.1" id="Layer_1" xmlns="http://www.w3.org/2000/svg" xmlns:xlink="http://www.w3.org/1999/xlink" x="0px" y="0px"
	 viewBox="0 0 1024 234" style="enable-background:new 0 0 1024 234;" xml:space="preserve">
<style type="text/css">
	.st0{fill:#E3D200;}
	.st1{fill:#FFFEF9;}
</style>
<g>
	<g>
		<path class="st0" d="M160.2,164.3h-40.8v-2.7h12.4V56.2h-12.4v-2.7h38.7c16.3,0,27.9,1.7,34.9,5.1s10.5,9.4,10.5,17.8
			s-2.7,14.9-8,19.2s-12.4,6.9-21.1,7.7v1c9.9,0.2,17.9,2.6,24.1,7s9.2,11,9.2,19.8C207.6,153.2,191.9,164.3,160.2,164.3z M176.9,97
			c5.1-3.9,7.6-10.2,7.6-18.8c0-8.6-2.2-14.4-6.7-17.5s-11.4-4.6-20.7-4.6h-7.3v46.7h4.8C164.3,102.9,171.8,101,176.9,97z
			 M181.1,154.6c5-4.7,7.5-12,7.5-22.2c0-10.1-2.8-17.1-8.5-21c-5.7-3.9-14.5-5.8-26.4-5.8h-3.9v55.9h8
			C168.2,161.6,176,159.3,181.1,154.6z"/>
		<path class="st0" d="M261,82.5c13.5,0,22.5,3,26.9,9.1s6.6,16.7,6.6,31.8v30.2c0,4.7,1,7,3.1,7c4.2,0,7-6.5,8.4-19.6l3.1,0.3
			c-1.7,17.6-7.5,26.4-17.2,26.4c-2.8,0-5-1-6.6-3.1c-1.5-2-2.5-4.3-2.9-6.7c-0.4-2.4-0.6-5.5-0.6-9.1h-1c-1.5,6-4.5,10.7-9,14
			c-4.5,3.3-10.4,5-17.5,5c-7.1,0-13.3-1.9-18.7-5.7c-5.4-3.8-8-9.3-8-16.5c0-5.3,1.5-9.8,4.6-13.3c6.4-7.3,20.8-10.9,43.3-10.9
			c1.2,0,2.6,0,3.9,0V113c0-9-1.5-15.8-4.6-20.3c-3.1-4.5-8.4-6.8-16-6.8s-13.1,1.5-16.6,4.6c-3.5,3.1-5.3,6.2-5.3,9.5
			c0,1,0.5,1.5,1.4,1.5c1,0,1.5-0.5,1.6-1.5c0.7-3,3-4.4,6.8-4.4c2.5,0,4.5,0.9,6,2.6s2.2,3.9,2.2,6.5s-0.9,4.7-2.8,6.5
			c-1.9,1.8-4.3,2.6-7.3,2.6s-5.6-1.2-7.9-3.5c-2.2-2.3-3.3-5.2-3.3-8.6c0-6.4,2.7-11.2,8-14.4C246.9,84.1,253.4,82.5,261,82.5z
			 M279.3,135.8v-11.4c-1.1,0-2.9,0-5.4,0c-2.5,0-5.4,0.2-8.7,0.5c-3.4,0.3-6.8,1.2-10.3,2.6c-7.3,2.6-10.9,8.4-10.9,17.4
			c0,5.5,1.3,9.8,3.9,13.1c2.6,3.3,6.8,5,12.6,5s10.4-2.6,13.7-7.9C277.6,149.9,279.3,143.5,279.3,135.8z"/>
		<path class="st0" d="M358.8,85.9c-15.5,0-23.2,12.9-23.2,38.5c0,25.7,7.9,38.5,23.5,38.5c5.9,0,10.8-2.2,14.6-6.5
			s6.5-9.9,7.9-16.7l3.1,0.3c-1.7,8.3-5.1,15-10.2,20c-5.1,5.1-11.6,7.6-19.4,7.6c-11.7,0-20.6-4-26.8-11.9s-9.2-18.3-9.2-31.1
			s3.1-23.1,9.3-30.8c6.2-7.7,15.4-11.5,27.7-11.5c7.9,0,14.2,1.7,19.1,5.1s7.3,8.6,7.3,15.5c0,3.4-1.1,6.3-3.3,8.6
			s-4.8,3.5-7.9,3.5c-3,0-5.5-0.9-7.3-2.6c-1.9-1.8-2.8-3.9-2.8-6.5s0.7-4.7,2.2-6.5s3.5-2.6,6-2.6c3.9,0,6.1,1.5,6.8,4.4
			c0.1,1,0.6,1.5,1.6,1.5c1,0,1.5-0.5,1.5-1.5c0-3.9-1.7-7.4-5.2-10.7C370.5,87.5,365.5,85.9,358.8,85.9z"/>
		<path class="st0" d="M431.6,119.6l-10.9,1.9v40.2h11.3v2.6h-37.7v-2.6h11.3V49.2h-12.1v-2.6h3.6c8.9,0,16.8-0.7,23.7-2.2v74.2
			c22.5-3,33.8-10.2,33.8-21.8c0-3.4-0.9-6.1-2.6-8.2s-4-3.1-6.6-3.1c-1.1,0-1.7,0.5-1.7,1.4c0,0.9,0.5,1.5,1.5,1.7
			c3,0.7,4.4,2.9,4.4,6.6c0,2.4-0.9,4.4-2.6,5.9c-1.8,1.5-3.9,2.3-6.5,2.3s-4.7-0.9-6.5-2.8c-1.8-1.9-2.6-4.3-2.6-7.2
			s1.2-5.5,3.5-7.7c2.3-2.2,5.4-3.2,9.3-3.2c3.9,0,7,1.3,9.5,3.8s3.8,6,3.8,10.5c0,9.4-5.9,16.3-17.7,20.5v0.3
			c8.9,0.5,14.7,2.8,17.4,7c2.7,4.2,4.1,11.1,4.1,20.6v6.5c0,4.3,0.4,7.4,1.1,9.3c0.7,1.9,2.1,2.8,4.2,2.8c0.8,0,1.8-0.2,3.1-0.5
			l0.3,2c-3,0.8-6,1.2-9.2,1.2c-9.8,0-14.7-5.6-14.7-16.9v-9.2c0-13.9-4.4-20.8-13.3-20.8L431.6,119.6L431.6,119.6z"/>
		<path class="st0" d="M517.4,204c-5.7,0-10.2-2-13.6-6.1s-5.1-9.2-5.1-15.6c0-9.7,5-18.1,15-25.4l-0.2-0.7
			c-7.7-0.5-14.5-5.7-20.3-15.9s-8.7-24.3-8.7-42.5v-9.5h-12.1v-2.6h3.6c9,0,17-0.7,24-2.2V94c0,16,1.9,29,5.7,38.8
			c3.8,9.8,9.3,14.8,16.5,14.8c5.1,0,10.5-3.9,16-11.6c5.6-7.7,8.4-16.5,8.4-26.3c0-5.6-0.8-10.5-2.4-14.8s-4.1-7.1-7.5-8.4
			c-1.1-0.6-2.5-0.9-3.9-0.9c-1.5,0-2.2,0.5-2.2,1.5c0,1,0.5,1.5,1.5,1.6c3.1,0.6,4.5,2.5,4.4,5.8c0,6.4-3,9.5-8.9,9.5
			c-2.7,0-5-1-6.7-2.9c-1.8-1.9-2.6-4.5-2.6-7.6s1.2-5.8,3.8-7.9s5.5-3.2,9-3.2c6.4,0,11.1,2.5,14.1,7.5s4.5,11.4,4.5,19.1
			c0,18.3-7.5,32.5-22.5,42.5c-0.2,0.2-1.4,1-3.6,2.4c-2.2,1.4-3.5,2.2-4,2.6c-0.5,0.4-1.7,1.3-3.7,2.6c-1.9,1.4-3.2,2.4-3.8,3.1
			c-0.6,0.7-1.7,1.7-3.2,3.1c-1.5,1.4-2.5,2.6-3.1,3.7c-0.6,1-1.2,2.3-2,3.8c-1.4,2.5-2,6-2,10.7c0,4.6,1.4,8.6,4.3,12.1
			c2.8,3.5,6,5.2,9.5,5.2c1.1,0,1.7-0.5,1.7-1.4c0-0.9-0.5-1.5-1.5-1.7c-3-0.7-4.4-3-4.4-6.8c0-2.4,0.9-4.4,2.6-5.9s3.9-2.3,6.5-2.3
			s4.7,0.9,6.5,2.8s2.6,4.3,2.6,7.2c0,3-1.2,5.6-3.6,7.9C523.5,202.9,520.7,204,517.4,204z"/>
		<path class="st0" d="M598,161.8v2.6h-37.7v-2.6h11.3V88.4h-12.1v-2.6h3.6c9,0,17-0.7,24-2.2v17.1h1c1.9-5.5,5.2-9.9,9.8-13.2
			c4.6-3.4,9.8-5,15.4-5c9.9,0,16.7,2.9,20.3,8.8c3.6,5.9,5.5,14.6,5.5,26.2v44.3h11.3v2.6h-37.7v-2.6H624v-41.9
			c0-12.9-1-21.3-2.9-25.4c-0.9-1.8-2.3-3.5-4.2-5s-4.6-2.2-8.3-2.2s-7.1,1.3-10.3,3.9c-3.2,2.6-5.7,6.2-7.2,10.8
			c-2.8,8.1-4.3,17.7-4.3,29v30.9L598,161.8L598,161.8z"/>
		<path class="st0" d="M744.5,164.3h-26.4v-15.5h-1c-2,5.8-5.1,10.4-9.1,13.8c-4,3.4-8.8,5.1-14.4,5.1c-10.2,0-17.8-4-22.8-12
			c-5-8-7.4-18.2-7.4-30.4s2.6-22.5,7.7-30.6c5.1-8.1,13-12.2,23.5-12.2c10.6,0,18.1,4.7,22.5,14h1V49.2H706v-2.6h3.6
			c8.9,0,16.8-0.7,23.7-2.2v117.3h11.3L744.5,164.3L744.5,164.3z M718.5,125.3v-6.1c0-8.9-1.7-16.4-5.1-22.6s-8.8-9.3-16-9.3
			c-7.8,0-12.8,4.4-14.8,13.3c-1.7,7.2-2.6,14.3-2.6,21.5s0.2,12.6,0.6,16.4c0.4,3.8,1.1,7.6,2.2,11.7c1.1,4,2.9,7.2,5.5,9.5
			c2.6,2.3,5.6,3.4,9.2,3.4s6.8-1.3,9.5-3.8c2.8-2.6,5-5.8,6.6-9.8C716.8,141.2,718.5,133.2,718.5,125.3z"/>
		<path class="st0" d="M797.2,82.5c8.5,0,15.7,1.8,21.4,5.5c5.7,3.6,8.6,9.1,8.6,16.4c0,11.3-6.4,18.2-19.3,20.8
			c-6.5,1.2-14.6,1.9-24.2,1.9h-8v5c0,9.2,1.9,16.7,5.7,22.4s9.4,8.6,16.7,8.6s13.1-2.2,17.2-6.5c4.2-4.3,7.1-9.9,8.8-16.7l3.1,0.3
			c-1.8,8.3-5.5,15-11,20c-5.5,5.1-12.5,7.6-20.9,7.6c-11.8,0-20.8-3.9-27-11.7c-6.1-7.8-9.2-18.1-9.2-31s3.3-23.2,9.9-31
			C775.7,86.3,785.1,82.5,797.2,82.5z M775.8,123.9h6c9.2,0,15.7-0.9,19.4-2.7c3.7-1.8,6.2-4.1,7.6-6.7c1.4-2.7,2-6.5,2-11.3
			c0-4.9-1.2-9.1-3.7-12.5s-6.2-5.2-11.2-5.2s-9.1,1.8-12.2,5.4s-5.2,7.8-6.3,12.5s-1.6,10.1-1.6,15.9V123.9z"/>
		<path class="st0" d="M901.3,95.4c0-3-1.1-5.4-3.2-7.3s-5.1-2.9-8.7-2.9s-7,1.5-10.2,4.4s-5.5,6.7-7.2,11.3
			c-3.1,9-4.6,18.7-4.6,29.2v31.7h12.5v2.6h-38.9v-2.6h11.3V88.4h-12.1v-2.6h3.6c9.1,0,17.1-0.7,24-2.2v17.7h1
			c4.8-12.6,11.9-18.9,21.5-18.9c4.2,0,7.7,1.3,10.3,4s4,6,4,9.9s-1.1,7-3.3,9.4c-2.2,2.3-4.8,3.5-7.8,3.5c-3,0-5.5-0.9-7.3-2.6
			c-1.9-1.8-2.8-3.9-2.8-6.5s0.7-4.7,2.2-6.5s3.5-2.6,6-2.6c3.9,0,6.1,1.5,6.8,4.4c0.2,1,0.8,1.5,1.7,1.5
			C900.8,97,901.3,96.4,901.3,95.4z"/>
	</g>
	<g id="layer1_00000160155474782408049530000010494159925133622194_" transform="translate(0,496.74998)">
		
			<g id="g862_00000005256378804712223040000008291994928408534930_" transform="matrix(2.4688652,0,0,2.4688652,163.67766,-619.9529)">
			<path id="path858_00000088127227210515439870000016866666469190401168_" class="st1" d="M32.1,60.5c-1.9,0.5-2.9,1-4.3,2.1
				c-0.8,0.6-1.2,1.1-1.6,1.6c-0.6,0.9-1.3,2.4-1.2,2.7c0,0.1,0.2,0.2,0.8,0.4c0.9,0.4,2.3,1.1,2.7,1.4c0.2,0.1,0.3,0.3,0.3,0.3
				c0,0-1.3-0.4-1.8-0.6c-1.8-0.7-3.5-1.2-4.7-1.4c-0.5-0.1-1.6,0-2.2,0.2c-1.7,0.4-3.5,1.9-4.4,3.7c-1.3,2.3-0.7,4.4,1.6,5.6
				c1.3,0.7,3.4,1.1,5.1,0.9c0.3,0,0.4,0,0.4-0.1c0-0.1,0.1-0.1,0.1-0.1s-0.1,1.1,0.3,2.8l0.4,1.5l0.4,0.6c0.4,0.6,1.3,0.8,1.9,0.3
				l0,0c1.2-1,2.6-1.8,4.2-2.5c3.8-1.6,10.5-3.2,14-3.3c1.4,0,3.2,0.1,4.1,0.4c0.2,0,0.5,0.1,0.8,0.2l0.5,0.1l-0.8-3.1
				c-0.4-1.7-0.8-3.1-0.7-3.2s0.1,0,0.1,0c0.1,0.1,0.6,0,1-0.2c1-0.4,2.3-1.4,2.9-1.9c0.1-0.1,0.2-0.2,0.2-0.2c0.1,0,0.7-0.8,1-1.2
				c0.4-0.6,0.7-1.3,0.8-1.9c0.1-0.3,0-0.5-0.1-1.2c-0.2-0.8-0.2-0.8-0.6-1.3c-0.5-0.7-1-1.1-1.9-1.5c-1.2-0.6-2.4-0.9-3.6-0.9
				c-0.8,0-2.1,0.3-2.8,0.7c-1.2,0.6-2.2,1.6-3.9,3.6c-0.7,0.8-1.3,1.5-1.4,1.4c-0.1-0.1,0.4-1,0.8-1.6c0.2-0.3,0.6-0.8,0.8-1
				c0.2-0.3,0.3-0.5,0.3-0.6c0-0.2-0.6-0.8-1-1.1c-1.5-1.2-2.6-1.6-4.9-1.9c-1.1-0.1-1.7-0.1-2.9,0.2C32.6,60.4,32.3,60.4,32.1,60.5
				L32.1,60.5z"/>
			<path id="path860_00000127739920013472078470000015436549941379871901_" class="st1" d="M36.6,78.1c-0.3,0.1-0.7,0.2-1.1,0.3
				c-4.1,1.3-4.3,1.4-5.7,2c-1.3,0.6-2.7,1.2-3.6,1.9l-1.3,1.1l-0.7,0.6c-1.7,2.3-6.5,12.6,5.2,14.2c0.6,0.1,0.8-0.7,0.3-1
				c-9.6-4.7-2.9-11.1-2.2-11.7c1.6-1.6,2.6-2.1,5.4-3.2c2-0.7,6.7-1.9,8.8-2.2c3.5-0.6,5.6-0.6,7.9,0c0.7,0.2,1.2,0.3,1.2,0.3
				c0,0,0-0.1-0.1-0.2c-0.1-0.1-0.3-0.6-0.6-1.6l-0.4-1.4l-0.4-0.1c-1.2-0.2-4.1-0.3-6-0.1c-1,0.1-1.6,0.2-3.1,0.4
				c-0.8,0.1-1.9,0.4-2.5,0.5C37.3,78,36.9,78,36.6,78.1L36.6,78.1z"/>
		</g>
	</g>
</g>
</svg>
