<?xml version="1.0" encoding="utf-8"?>
<!-- Generator: Adobe Illustrator 26.5.1, SVG Export Plug-In . SVG Version: 6.00 Build 0)  -->
<svg version="1.1" id="Layer_1" xmlns="http://www.w3.org/2000/svg" xmlns:xlink="http://www.w3.org/1999/xlink" x="0px" y="0px"
	 viewBox="0 0 18.2 20.6" style="enable-background:new 0 0 18.2 20.6;" xml:space="preserve">
<style type="text/css">
	.st0{fill:#730099;}
</style>
<path class="st0" d="M15.2,17.9l-5-5.5c-0.4,0.4-0.8,0.6-1.3,0.8c-0.5,0.2-1.1,0.3-1.6,0.3c-1.4,0-2.5-0.5-3.4-1.6S2.5,9.6,2.5,8.1
	s0.5-2.8,1.4-3.8S6,2.7,7.3,2.7c1.3,0,2.4,0.5,3.4,1.6s1.4,2.3,1.4,3.8c0,0.6-0.1,1.2-0.3,1.7c-0.2,0.5-0.5,1.1-0.8,1.6l5,5.5
	L15.2,17.9z M7.3,12.3c1,0,1.9-0.4,2.6-1.2c0.7-0.8,1.1-1.8,1.1-2.9s-0.4-2.1-1.1-2.9S8.3,4.1,7.3,4.1S5.4,4.5,4.6,5.3
	S3.6,7,3.6,8.2S4,10.3,4.7,11C5.4,11.8,6.3,12.2,7.3,12.3z"/>
</svg>
