<?xml version="1.0" encoding="utf-8"?>
<!-- Generator: Adobe Illustrator 26.5.1, SVG Export Plug-In . SVG Version: 6.00 Build 0)  -->
<svg version="1.1" id="Layer_1" xmlns="http://www.w3.org/2000/svg" xmlns:xlink="http://www.w3.org/1999/xlink" x="0px" y="0px"
	 viewBox="0 0 521 527" style="enable-background:new 0 0 521 527;" xml:space="preserve">
<style type="text/css">
	.st0{fill:#730099;}
	.st1{fill:#FFFFFF;}
</style>
<path class="st0" d="M513,246.8c0,10.5,0,20.9,0,31.4c-0.3,1.3-0.7,2.5-0.8,3.8c-3,38.7-14.1,75-34.3,108.1
	c-39.8,65.3-97.4,105.4-172.7,119.6c-9.1,1.7-18.4,2.6-27.5,3.8c-10.5,0-20.9,0-31.4,0c-1.4-0.3-2.8-0.7-4.3-0.9
	c-10.3-1.5-20.8-2.3-31-4.4C83.9,482-2.7,362.1,12.8,233.4C21,164.9,52.4,108.8,106.3,66c57.5-45.7,123.4-62.4,195.9-51.3
	c48,7.3,90.2,27.8,126.4,60.3c43.3,38.8,70.4,86.9,80.6,144.3C510.8,228.4,511.7,237.6,513,246.8z M371.9,184.6
	c-0.2-0.4-0.3-0.9-0.5-1.3c10.8-7.5,18.9-17.1,22.8-29.1c-10.6,3.8-21.1,7.5-31.7,11.3c-3,1.1-4.9,0.2-7.3-1.9
	c-17.4-15.3-37.4-19.8-59.2-11.6c-21.7,8.2-34.2,24.5-37.1,47.6c-0.8,6.3-0.1,12.8-0.1,19.6c-47.7-3.4-86.8-23.6-118.1-60.2
	c-7.5,13.5-9.4,27.2-6.3,41.6s11.2,25.7,22.9,34.7c-0.3,0.4-0.5,0.9-0.8,1.3c-7.9-2.2-15.8-4.4-24.3-6.8c2,28.8,16.9,47.3,44.4,56.2
	c-0.1,0.4-0.2,0.8-0.4,1.2c-7.7,0-15.3,0-23.5,0c4,11.9,10.7,21.1,20.1,28.3c9.5,7.3,20.5,10.7,33.4,11.9
	c-25.5,19-52.9,26.5-83.4,24c0.4,0.7,0.5,1.1,0.7,1.2c1.1,0.7,2.2,1.4,3.3,2c19.5,11.3,40.3,18.5,62.6,21
	c38.2,4.3,74.6-1.7,107-22.8c51.4-33.5,76.3-82,77.2-143.1c0-3.2,1.1-5.1,3.4-7.4c7.7-7.3,14.9-15.1,22.2-22.7
	c0.8-0.8,1.2-2,1.8-3.1C391.3,179.3,381.6,181.9,371.9,184.6z"/>
<path class="st1" d="M371.9,184.6c9.7-2.6,19.4-5.3,29.4-8c-0.6,1.1-1,2.3-1.8,3.1c-7.3,7.6-14.6,15.4-22.2,22.7
	c-2.3,2.2-3.4,4.1-3.4,7.4c-0.8,61.1-25.7,109.6-77.2,143.1c-32.4,21.1-68.8,27.1-107,22.8c-22.4-2.5-43.2-9.8-62.6-21
	c-1.1-0.7-2.2-1.3-3.3-2c-0.2-0.1-0.3-0.5-0.7-1.2c30.5,2.4,57.9-5,83.4-24c-12.9-1.2-23.9-4.7-33.4-11.9
	c-9.4-7.2-16.2-16.4-20.1-28.3c8.1,0,15.8,0,23.5,0c0.1-0.4,0.2-0.8,0.4-1.2c-27.6-8.9-42.4-27.4-44.4-56.2
	c8.5,2.4,16.4,4.6,24.3,6.8c0.3-0.4,0.5-0.9,0.8-1.3c-11.7-9-19.8-20.2-22.9-34.7s-1.2-28.2,6.3-41.6
	c31.2,36.6,70.4,56.8,118.1,60.2c0-6.7-0.7-13.2,0.1-19.6c2.9-23.1,15.4-39.4,37.1-47.6c21.8-8.2,41.8-3.7,59.2,11.6
	c2.4,2.1,4.4,3,7.3,1.9c10.5-3.8,21.1-7.5,31.7-11.3c-3.9,12-12,21.6-22.8,29.1C371.6,183.7,371.7,184.1,371.9,184.6z"/>
</svg>
